<svg width="18" height="17" viewBox="0 0 18 17" fill="none" xmlns="http://www.w3.org/2000/svg">
  <path d="M8.99883 0.00488688C11.8395 0.00488688 14.6808 0.00488688 17.5228 0.00488688C17.5991 -0.00426038 17.6764 0.00617087 17.7475 0.0354045C17.8186 0.064638 17.881 0.111692 17.9288 0.171879C17.9867 0.253313 18.0121 0.353438 17.9999 0.452641C17.9877 0.551844 17.9388 0.642825 17.8628 0.707768L16.1558 2.79175C14.4891 4.82842 12.8225 6.86612 11.1558 8.90479C11.1035 8.97796 11.0759 9.06584 11.0768 9.15577C11.0718 10.7108 11.0688 12.2658 11.0768 13.8208C11.086 13.932 11.0589 14.0431 10.9998 14.1377C10.9407 14.2323 10.8527 14.3054 10.7488 14.346C9.67383 14.874 8.60474 15.4128 7.53374 15.9458C7.31274 16.0558 7.13375 16.0397 7.01775 15.8757C6.95988 15.7913 6.9277 15.6921 6.92485 15.5898C6.91285 15.2728 6.91985 14.9559 6.91985 14.6379C6.91985 12.8149 6.91985 10.9919 6.91985 9.16895C6.91835 9.06316 6.88324 8.96036 6.81975 8.87574C4.59175 6.1424 2.36044 3.41395 0.125778 0.689945C0.0640755 0.631099 0.0224974 0.554286 0.00688157 0.470463C-0.00873423 0.38664 0.00236882 0.300022 0.0387419 0.222904C0.0781791 0.147111 0.140198 0.0853559 0.21611 0.0461466C0.292022 0.00693743 0.378181 -0.00779965 0.462814 0.00391032C3.30681 0.00857698 6.15216 0.00888688 8.99883 0.00488688Z" fill="currentColor"/>
</svg>
