<svg viewBox="0 0 285 28" fill="none" xmlns="http://www.w3.org/2000/svg">

<path d="M0.162905 13.8231C0.162905 13.8231 0.320368 14.7433 1.68505 16.0301C2.57734 16.868 3.6196 17.3992 4.68435 17.7508C9.45323 19.3294 15.3094 17.8855 19.2084 16.479C22.9276 15.1323 26.5192 13.1273 26.5192 13.1273C26.5192 13.1273 36.5819 18.1548 45.0999 19.3294C53.4379 20.4741 60.8762 17.3094 62.0684 12.2969C62.0684 12.2819 63.673 14.7059 60.4938 18.5139C57.4045 22.2172 52.3732 23.7659 45.0849 22.8531C36.7768 21.8132 26.5192 16.666 26.5192 16.666C26.5192 16.666 19.8533 20.6312 12.9549 21.716C9.23578 22.3145 5.79408 21.888 3.55211 20.8332C2.7423 20.4516 2.38238 20.0925 2.00747 19.8157C-0.811866 17.7284 0.162905 13.8231 0.162905 13.8231Z" fill="currentColor"/>
<path d="M0.162905 18.7106C0.162905 18.7106 0.320368 19.6309 1.68505 20.9177C2.57734 21.7556 3.6196 22.2868 4.68435 22.6384C9.45323 24.217 15.3094 22.773 19.2084 21.3665C22.9276 20.0199 26.5192 18.0149 26.5192 18.0149C26.5192 18.0149 36.5819 23.0424 45.0999 24.217C53.4379 25.3616 60.8762 22.197 62.0684 17.1919C62.0684 17.177 63.673 19.6009 60.4938 23.409C57.4045 27.1123 52.3732 28.6609 45.0849 27.7407C36.7768 26.7008 26.5192 21.5536 26.5192 21.5536C26.5192 21.5536 19.8533 25.5187 12.9549 26.6035C9.23578 27.202 5.79408 26.7756 3.55211 25.7207C2.7423 25.3392 2.38238 24.9801 2.00747 24.7032C-0.811866 22.6159 0.162905 18.7106 0.162905 18.7106Z" fill="currentColor"/>
<path d="M4.16785 5.48176C4.16785 5.48176 -1.05843 5.99798 0.193781 12.0504C1.01859 15.9931 6.38733 17.9981 13.4732 16.7188C19.1118 15.7013 23.0034 13.5467 28.9945 10.6813C33.7409 8.40699 33.7409 8.22743 41.0067 4.75607C48.7074 1.07522 52.8839 1.99543 55.3808 3.11764C57.0305 3.8583 58.5151 5.39199 59.8723 7.94314C59.8723 7.94314 60.4272 4.24733 57.8703 2.04032C55.3134 -0.174169 48.4375 -1.19912 40.9692 2.18247C32.2338 6.14013 26.2427 8.84839 21.1589 11.1078C14.1105 14.2425 8.57681 13.6215 5.94493 12.3796C3.31305 11.1377 1.37101 8.82595 4.16035 5.48924" fill="currentColor"/>
<path d="M3.68163 8.8708C3.68163 8.8708 3.16425 6.52912 6.366 5.04781C9.56025 3.56649 17.6733 3.17746 26.4088 7.75607L22.3148 9.50672C22.3148 9.50672 10.9774 2.59391 3.68163 8.8708Z" fill="currentColor"/>
<path d="M27.7041 12.4797L31.6707 10.4523C31.6707 10.4523 51.871 20.1631 59.6616 10.2952C59.6616 10.2952 61.7462 7.54949 59.9166 3.69657C59.9166 3.69657 63.7107 7.60185 61.7911 11.5894C59.8716 15.577 55.1252 18.7716 46.7272 18.1506C40.2262 17.6718 32.3755 14.6418 27.7116 12.4722" fill="currentColor"/>
<path d="M109.75 4.39823L116.656 22.376H113.117L108.355 9.01425L103.601 22.376H100.04L106.938 4.39823H109.75Z" fill="currentColor"/>
<path d="M119.62 4.39801H122.844V17.0341L130.612 4.39801H133.844V22.3758H130.62V9.7472L122.852 22.3758H119.62V4.39801Z" fill="currentColor"/>
<path d="M138.219 22.376V4.39823H142.591L147.457 18.1416L152.293 4.39823H156.687V22.376H153.463V8.917L148.822 22.376H146.092L141.451 8.917V22.376H138.219Z" fill="currentColor"/>
<path d="M161.078 22.376V4.39823H175.249V22.376H172.017V7.6302H164.302V22.376H161.078Z" fill="currentColor"/>
<path d="M179.627 4.39801H182.852V17.0341L190.62 4.39801H193.852V22.3758H190.627V9.7472L182.852 22.3758H179.627V4.39801Z" fill="currentColor"/>
<path d="M201.106 0.0321325H203.813C203.858 0.406202 204.015 0.697976 204.285 0.914937C204.555 1.1319 204.907 1.24412 205.342 1.24412C205.77 1.25908 206.115 1.15434 206.377 0.9299C206.647 0.705458 206.812 0.406202 206.872 0.0321325H209.579C209.421 1.03464 208.964 1.85011 208.199 2.48603C207.434 3.12195 206.482 3.43617 205.335 3.43617C204.188 3.43617 203.213 3.12195 202.448 2.48603C201.683 1.85011 201.233 1.03464 201.098 0.0321325M198.227 4.40127H201.451V17.0373L209.219 4.40127H212.451V22.379H209.226V9.75046L201.458 22.379H198.227V4.40127Z" fill="currentColor"/>
<path d="M233.141 9.55242H229.466C228.919 8.84169 228.267 8.28806 227.509 7.89903C226.752 7.51 225.942 7.31548 225.088 7.31548C223.378 7.31548 221.961 7.92148 220.844 9.14094C219.726 10.3529 219.171 11.7744 219.171 13.3904C219.171 15.0886 219.749 16.555 220.888 17.7745C222.036 18.9939 223.438 19.5999 225.102 19.585C225.905 19.585 226.67 19.4129 227.397 19.0762C228.124 18.7321 228.762 18.2084 229.294 17.4977H233.036C232.278 19.1361 231.214 20.4304 229.819 21.3805C228.432 22.3381 226.827 22.8169 225.005 22.8169C222.448 22.8169 220.296 21.9117 218.549 20.0937C216.802 18.2832 215.932 16.0463 215.932 13.3904C215.932 10.7345 216.809 8.61725 218.557 6.80675C220.304 4.99625 222.471 4.08352 225.043 4.08352C226.85 4.08352 228.462 4.56233 229.886 5.52743C231.311 6.49253 232.391 7.8317 233.126 9.54494" fill="currentColor"/>
<path d="M236.384 22.3758V4.39801H239.616V12.2011L245.03 4.39801H248.884L242.338 13.241L248.876 22.3758H245.03L239.616 14.5054V22.3758H236.384Z" fill="currentColor"/>
<path d="M252.171 4.39801H255.403V17.0341L263.171 4.39801H266.395V22.3758H263.171V9.7472L255.403 22.3758H252.171V4.39801Z" fill="currentColor"/>
<path d="M273.655 0.0321325H276.362C276.407 0.406202 276.564 0.697976 276.834 0.914937C277.104 1.1319 277.457 1.24412 277.892 1.24412C278.319 1.25908 278.664 1.15434 278.926 0.9299C279.196 0.705458 279.361 0.406202 279.421 0.0321325H282.128C281.971 1.03464 281.513 1.85011 280.749 2.48603C279.984 3.12195 279.031 3.43617 277.884 3.43617C276.737 3.43617 275.762 3.12195 274.997 2.48603C274.232 1.85011 273.783 1.03464 273.648 0.0321325M270.776 4.40127H274V17.0373L281.768 4.40127H285V22.379H281.776V9.75046L274.008 22.379H270.776V4.40127Z" fill="currentColor"/>
<path d="M90.0284 4.0869C87.419 4.0869 85.237 4.99963 83.4824 6.83257C81.7203 8.65803 80.843 10.88 80.843 13.491V13.6257C80.858 16.1693 81.7353 18.3315 83.4824 20.1046C85.2595 21.9076 87.4415 22.8128 90.0284 22.8128C92.6152 22.8128 94.7822 21.9076 96.5518 20.1046C98.3289 18.3015 99.2137 16.0945 99.2137 13.4835C99.2137 10.8725 98.3289 8.65803 96.5668 6.82509C94.7972 4.99215 92.6227 4.07942 90.0284 4.07942M90.0059 19.5809C88.3263 19.5809 86.9166 18.9824 85.7768 17.7853C84.6371 16.5883 84.0673 15.1294 84.0673 13.4087C84.0673 11.688 84.6371 10.289 85.7768 9.09943C86.9166 7.90989 88.3337 7.31138 90.0284 7.31138C91.723 7.31138 93.1251 7.90989 94.2649 9.09943C95.4121 10.289 95.9819 11.7254 95.9819 13.4087C95.9819 15.092 95.4046 16.5659 94.2649 17.7704C93.1176 18.9749 91.7005 19.5809 89.9984 19.5809" fill="currentColor"/>

</svg>
