<svg viewBox="0 0 222 22" fill="none" xmlns="http://www.w3.org/2000/svg">

<path d="M0.126895 10.861C0.126895 10.861 0.24955 11.584 1.31256 12.5951C2.00761 13.2534 2.81947 13.6708 3.64886 13.9471C7.36357 15.1874 11.9252 14.0529 14.9624 12.9478C17.8594 11.8897 20.6571 10.3143 20.6571 10.3143C20.6571 10.3143 28.4953 14.2645 35.1304 15.1874C41.6253 16.0868 47.4193 13.6003 48.348 9.66185C48.348 9.65009 49.5979 11.5546 47.1215 14.5467C44.7151 17.4564 40.7959 18.6732 35.1187 17.956C28.6472 17.139 20.6571 13.0947 20.6571 13.0947C20.6571 13.0947 15.4647 16.2102 10.0912 17.0625C7.19418 17.5328 4.51329 17.1977 2.76691 16.3689C2.13611 16.0691 1.85575 15.787 1.56372 15.5695C-0.632401 13.9294 0.126895 10.861 0.126895 10.861Z" fill="currentColor"/>
<path d="M0.126895 14.7012C0.126895 14.7012 0.24955 15.4242 1.31256 16.4353C2.00761 17.0937 2.81947 17.511 3.64886 17.7873C7.36357 19.0276 11.9252 17.8931 14.9624 16.788C17.8594 15.7299 20.6571 14.1545 20.6571 14.1545C20.6571 14.1545 28.4953 18.1047 35.1304 19.0276C41.6253 19.927 47.4193 17.4405 48.348 13.5079C48.348 13.4962 49.5979 15.4007 47.1215 18.3928C44.7151 21.3025 40.7959 22.5193 35.1187 21.7963C28.6472 20.9792 20.6571 16.9349 20.6571 16.9349C20.6571 16.9349 15.4647 20.0504 10.0912 20.9028C7.19418 21.373 4.51329 21.038 2.76691 20.2091C2.13611 19.9093 1.85575 19.6272 1.56372 19.4097C-0.632401 17.7697 0.126895 14.7012 0.126895 14.7012Z" fill="currentColor"/>
<path d="M3.24653 4.3071C3.24653 4.3071 -0.824458 4.7127 0.150945 9.46819C0.793426 12.566 4.97539 14.1414 10.4949 13.1362C14.8871 12.3368 17.9185 10.6438 22.5852 8.39247C26.2824 6.60549 26.2824 6.46441 31.9421 3.73691C37.9405 0.844818 41.1938 1.56784 43.1388 2.44958C44.4237 3.03152 45.5802 4.23656 46.6374 6.24104C46.6374 6.24104 47.0696 3.33719 45.0779 1.60311C43.0862 -0.136847 37.7302 -0.942166 31.9129 1.7148C25.1084 4.82438 20.4417 6.9523 16.4816 8.72753C10.9913 11.1905 6.68089 10.7026 4.63079 9.72683C2.58069 8.75105 1.06794 6.93467 3.24069 4.31298" fill="currentColor"/>
<path d="M2.86779 6.96991C2.86779 6.96991 2.46478 5.13002 4.95878 3.96613C7.44693 2.80224 13.7666 2.49657 20.5711 6.09406L17.382 7.46956C17.382 7.46956 8.55083 2.03807 2.86779 6.96991Z" fill="currentColor"/>
<path d="M21.5801 9.8055L24.6698 8.21249C24.6698 8.21249 40.4048 15.8424 46.4733 8.08905C46.4733 8.08905 48.097 5.93174 46.6719 2.90445C46.6719 2.90445 49.6273 5.97288 48.132 9.10598C46.6368 12.2391 42.9396 14.7491 36.398 14.2612C31.3341 13.885 25.2188 11.5043 21.5859 9.79962" fill="currentColor"/>
<path d="M85.4894 3.45576L90.8687 17.5812H88.1119L84.403 7.08263L80.7 17.5812H77.9256L83.2991 3.45576H85.4894Z" fill="currentColor"/>
<path d="M93.1777 3.45558H95.6892V13.3839L101.74 3.45558H104.258V17.581H101.746V7.65852L95.695 17.581H93.1777V3.45558Z" fill="currentColor"/>
<path d="M107.665 17.5812V3.45576H111.071L114.861 14.2541L118.629 3.45576H122.051V17.5812H119.54V7.00621L115.924 17.5812H113.798L110.183 7.00621V17.5812H107.665Z" fill="currentColor"/>
<path d="M125.471 17.5812V3.45576H136.51V17.5812H133.993V5.99515H127.982V17.5812H125.471Z" fill="currentColor"/>
<path d="M139.92 3.45558H142.432V13.3839L148.483 3.45558H151V17.581H148.489V7.65852L142.432 17.581H139.92V3.45558Z" fill="currentColor"/>
<path d="M156.651 0.025247H158.759C158.794 0.319159 158.917 0.54841 159.127 0.718879C159.338 0.889348 159.612 0.977521 159.951 0.977521C160.284 0.989278 160.552 0.906982 160.757 0.730635C160.967 0.554288 161.096 0.319159 161.142 0.025247H163.251C163.128 0.812931 162.772 1.45366 162.176 1.95331C161.58 2.45296 160.839 2.69984 159.945 2.69984C159.051 2.69984 158.292 2.45296 157.696 1.95331C157.101 1.45366 156.75 0.812931 156.645 0.025247M154.408 3.45814H156.92V13.3865L162.971 3.45814H165.488V17.5835H162.976V7.66108L156.925 17.5835H154.408V3.45814Z" fill="currentColor"/>
<path d="M181.604 7.50547H178.742C178.316 6.94704 177.808 6.51205 177.218 6.20638C176.628 5.90071 175.997 5.74788 175.331 5.74788C174 5.74788 172.896 6.22402 172.025 7.18217C171.155 8.13444 170.723 9.25131 170.723 10.521C170.723 11.8554 171.173 13.0075 172.061 13.9657C172.954 14.9238 174.046 15.3999 175.343 15.3882C175.968 15.3882 176.564 15.253 177.13 14.9885C177.697 14.7181 178.193 14.3066 178.608 13.7482H181.522C180.933 15.0355 180.103 16.0524 179.017 16.799C177.936 17.5514 176.686 17.9276 175.267 17.9276C173.275 17.9276 171.599 17.2163 170.238 15.7879C168.877 14.3654 168.2 12.6078 168.2 10.521C168.2 8.43423 168.883 6.77069 170.244 5.34816C171.605 3.92563 173.293 3.20848 175.296 3.20848C176.704 3.20848 177.96 3.58469 179.069 4.34298C180.179 5.10127 181.02 6.15348 181.593 7.49959" fill="currentColor"/>
<path d="M184.131 17.581V3.45558H186.648V9.58658L190.865 3.45558H193.867L188.768 10.4037L193.861 17.581H190.865L186.648 11.3971V17.581H184.131Z" fill="currentColor"/>
<path d="M196.428 3.45558H198.945V13.3839L204.996 3.45558H207.508V17.581H204.996V7.65852L198.945 17.581H196.428V3.45558Z" fill="currentColor"/>
<path d="M213.163 0.025247H215.271C215.306 0.319159 215.429 0.54841 215.639 0.718879C215.85 0.889348 216.124 0.977521 216.463 0.977521C216.796 0.989278 217.065 0.906982 217.269 0.730635C217.479 0.554288 217.608 0.319159 217.654 0.025247H219.763C219.64 0.812931 219.284 1.45366 218.688 1.95331C218.093 2.45296 217.351 2.69984 216.457 2.69984C215.563 2.69984 214.804 2.45296 214.208 1.95331C213.613 1.45366 213.262 0.812931 213.157 0.025247M210.92 3.45814H213.432V13.3865L219.483 3.45814H222V17.5835H219.488V7.66108L213.437 17.5835H210.92V3.45814Z" fill="currentColor"/>
<path d="M70.1273 3.21114C68.0948 3.21114 66.3951 3.92828 65.0284 5.36845C63.6558 6.80274 62.9724 8.54857 62.9724 10.6001V10.7059C62.9841 12.7045 63.6675 14.4033 65.0284 15.7964C66.4126 17.2131 68.1123 17.9244 70.1273 17.9244C72.1424 17.9244 73.8304 17.2131 75.2088 15.7964C76.593 14.3798 77.2823 12.6457 77.2823 10.5942C77.2823 8.5427 76.593 6.80274 75.2205 5.36257C73.842 3.9224 72.1482 3.20526 70.1273 3.20526M70.1098 15.385C68.8015 15.385 67.7034 14.9147 66.8157 13.9742C65.9279 13.0337 65.484 11.8874 65.484 10.5354C65.484 9.18342 65.9279 8.08419 66.8157 7.14955C67.7034 6.21491 68.8073 5.74466 70.1273 5.74466C71.4473 5.74466 72.5396 6.21491 73.4274 7.14955C74.321 8.08419 74.7649 9.21282 74.7649 10.5354C74.7649 11.858 74.3152 13.016 73.4274 13.9624C72.5337 14.9088 71.4298 15.385 70.104 15.385" fill="currentColor"/>

</svg>
