<svg width="64" height="30" viewBox="0 0 64 30" fill="none" xmlns="http://www.w3.org/2000/svg">
  <path
    d="M0.166886 14.8105C0.166886 14.8105 0.328197 15.7964 1.72623 17.1751C2.64032 18.0729 3.70805 18.642 4.79882 19.0187C9.68424 20.7101 15.6835 19.163 19.6778 17.6561C23.4879 16.2132 27.1673 14.065 27.1673 14.065C27.1673 14.065 37.4758 19.4516 46.202 20.7101C54.7438 21.9365 62.3638 18.5458 63.5852 13.1752C63.5852 13.1592 65.229 15.7563 61.9721 19.8364C58.8073 23.8042 53.653 25.4634 46.1866 24.4855C37.6755 23.3713 27.1673 17.8565 27.1673 17.8565C27.1673 17.8565 20.3384 22.1048 13.2715 23.2671C9.46148 23.9084 5.93568 23.4515 3.63891 22.3212C2.80931 21.9124 2.4406 21.5277 2.05653 21.2311C-0.831706 18.9947 0.166886 14.8105 0.166886 14.8105Z"
    fill="currentColor"
  />
  <path
    d="M0.166886 20.0471C0.166886 20.0471 0.328197 21.0331 1.72623 22.4118C2.64032 23.3095 3.70805 23.8787 4.79882 24.2554C9.68424 25.9467 15.6835 24.3997 19.6778 22.8927C23.4879 21.4499 27.1673 19.3017 27.1673 19.3017C27.1673 19.3017 37.4758 24.6883 46.202 25.9467C54.7438 27.1731 62.3638 23.7825 63.5852 18.4199C63.5852 18.4039 65.229 21.001 61.9721 25.081C58.8073 29.0488 53.653 30.7081 46.1866 29.7222C37.6755 28.608 27.1673 23.0931 27.1673 23.0931C27.1673 23.0931 20.3384 27.3415 13.2715 28.5038C9.46148 29.145 5.93568 28.6881 3.63891 27.5579C2.80931 27.1491 2.4406 26.7643 2.05653 26.4678C-0.831706 24.2314 0.166886 20.0471 0.166886 20.0471Z"
    fill="currentColor"
  />
  <path
    d="M4.2697 5.87332C4.2697 5.87332 -1.08429 6.42641 0.198516 12.9112C1.04348 17.1355 6.54342 19.2837 13.8024 17.913C19.5789 16.8229 23.5656 14.5143 29.7031 11.4443C34.5654 9.00749 34.5655 8.81511 42.0088 5.09579C49.8977 1.15202 54.1763 2.13797 56.7342 3.34033C58.4241 4.13389 59.945 5.77713 61.3354 8.51051C61.3354 8.51051 61.9038 4.55071 59.2845 2.18606C56.6651 -0.18661 49.6212 -1.28477 41.9704 2.33836C33.0215 6.57871 26.884 9.48042 21.6759 11.9012C14.4553 15.2598 8.78641 14.5945 6.09021 13.2639C3.39401 11.9332 1.40451 9.45637 4.26202 5.88133"
    fill="currentColor"
  />
  <path
    d="M3.7716 9.50443C3.7716 9.50443 3.24157 6.99549 6.52157 5.40836C9.79388 3.82124 18.1052 3.40442 27.0542 8.31007L22.8601 10.1858C22.8601 10.1858 11.2457 2.77919 3.7716 9.50443Z"
    fill="currentColor"
  />
  <path
    d="M28.3811 13.3711L32.4446 11.1989C32.4446 11.1989 53.1386 21.6033 61.1196 11.0305C61.1196 11.0305 63.2551 8.08873 61.3808 3.96061C61.3808 3.96061 65.2676 8.14484 63.3012 12.4173C61.3347 16.6897 56.4723 20.1124 47.8691 19.4471C41.2092 18.9341 33.1667 15.6877 28.3888 13.3631"
    fill="currentColor"
  />
</svg>
