<svg width="41" height="51" viewBox="0 0 41 51" fill="none" xmlns="http://www.w3.org/2000/svg">
  <path
    d="M38.309 11.3752C35.1844 8.25055 32.0594 5.12462 28.934 1.99729C28.3878 1.43353 27.7315 0.988521 27.0056 0.689673C26.2797 0.390824 25.4999 0.244729 24.7151 0.260473C18.7284 0.26914 12.7414 0.26914 6.75411 0.260473C5.96793 0.217096 5.18148 0.339667 4.44601 0.620825C3.71054 0.901983 3.04257 1.33506 2.4858 1.89182C1.92904 2.44858 1.49597 3.1168 1.21481 3.85227C0.933649 4.58774 0.810835 5.37419 0.854212 6.16038C0.854212 19.027 0.854212 31.8957 0.854212 44.7663C0.815842 45.5476 0.941926 46.3283 1.22433 47.0578C1.50673 47.7873 1.93917 48.4494 2.49362 49.0012C3.04807 49.553 3.712 49.982 4.44283 50.261C5.17367 50.5399 5.95494 50.6624 6.73605 50.6203H34.153C34.9342 50.66 35.7151 50.5351 36.445 50.2541C37.175 49.9732 37.8378 49.5426 38.3908 48.9895C38.9438 48.4364 39.3747 47.7732 39.6555 47.0432C39.9363 46.3132 40.061 45.5323 40.0212 44.7512C40.0212 39.9019 40.0212 35.0527 40.0212 30.2033C40.0212 25.3173 40.0212 20.4308 40.0212 15.5442C40.0365 14.7691 39.8924 13.9991 39.5979 13.282C39.3034 12.5648 38.8646 11.9159 38.309 11.3752Z"
    fill="currentColor"
  />
  <path
    d="M22.3618 30.5764V29.9045C22.3618 25.0232 22.3618 20.1421 22.3618 15.2614C22.3837 14.8334 22.3063 14.4059 22.1352 14.0129C21.9641 13.6199 21.7042 13.2719 21.3759 12.9963C20.9683 12.649 20.4689 12.4266 19.938 12.3562C19.407 12.2858 18.8671 12.3702 18.383 12.5993C17.8989 12.8284 17.4912 13.1925 17.209 13.6477C16.9267 14.1028 16.7819 14.6298 16.792 15.1652C16.786 20.0986 16.786 25.0353 16.792 29.9753V30.5964C16.73 30.5673 16.6703 30.5338 16.613 30.4963C15.5 29.3783 14.3929 28.2543 13.2739 27.1433C13.0228 26.8555 12.7154 26.6223 12.3708 26.4577C12.0262 26.2931 11.6516 26.2007 11.27 26.1862C10.8884 26.1718 10.5079 26.2357 10.1518 26.3737C9.79576 26.5118 9.47179 26.721 9.19968 26.989C8.92756 27.2569 8.7131 27.5779 8.56955 27.9318C8.426 28.2857 8.35641 28.6653 8.36496 29.0471C8.37351 29.4289 8.45986 29.8049 8.61911 30.1521C8.77837 30.4992 9.00714 30.8096 9.29099 31.0651C12.0243 33.8151 14.767 36.5581 17.519 39.2941C17.7844 39.5759 18.1048 39.8004 18.4604 39.9533C18.8161 40.1062 19.1993 40.1846 19.5864 40.1833C19.9735 40.182 20.3563 40.1008 20.7109 39.9455C21.0655 39.7902 21.3844 39.5641 21.6479 39.2805C22.5349 38.4085 23.4078 37.5232 24.2868 36.6442C26.1535 34.7776 28.0166 32.9135 29.8759 31.0515C30.2388 30.6972 30.4986 30.2508 30.6277 29.7604C30.7567 29.2701 30.7502 28.7542 30.6089 28.2673C30.4675 27.7803 30.1965 27.3408 29.8249 26.9958C29.4533 26.6508 28.9951 26.4132 28.499 26.3083C28.0346 26.2024 27.5503 26.2206 27.0952 26.361C26.64 26.5015 26.23 26.7589 25.906 27.1081C24.746 28.2461 23.5808 29.3824 22.3618 30.5764Z"
    fill="currentColor"
    opacity="0.72"
  />
</svg>
