<svg width="50" height="52" viewBox="0 0 50 52" fill="none" xmlns="http://www.w3.org/2000/svg">
  <path
    d="M47.8467 11.6797C44.7014 8.57301 41.5575 5.46572 38.4149 2.35838C37.8652 1.79782 37.2059 1.35654 36.4781 1.062C35.7503 0.767449 34.9695 0.62603 34.1846 0.646469C28.198 0.691136 22.2113 0.729084 16.2247 0.75975C15.4387 0.721629 14.6537 0.849583 13.9205 1.13524C13.1873 1.42089 12.5225 1.85768 11.9695 2.41747C11.4166 2.97725 10.9877 3.64716 10.711 4.38377C10.4343 5.12039 10.3161 5.90695 10.3638 6.69237C10.4405 19.559 10.5184 32.4281 10.5977 45.2988C10.5641 46.0804 10.6949 46.8601 10.9817 47.5879C11.2686 48.3157 11.7051 48.975 12.263 49.5234C12.8208 50.0718 13.4877 50.497 14.2203 50.7715C14.9528 51.0459 15.7348 51.1636 16.5157 51.1167C25.6537 51.0627 34.7921 51.0073 43.9307 50.9507C44.7122 50.9855 45.4922 50.8562 46.2205 50.5708C46.9488 50.2854 47.6091 49.8499 48.1588 49.2934C48.7085 48.737 49.1355 48.0716 49.4119 47.3398C49.6884 46.6081 49.8081 45.8263 49.7637 45.0454C49.7357 40.1967 49.7068 35.3479 49.6768 30.4985C49.6468 25.6125 49.6177 20.7265 49.5897 15.8398C49.5996 15.064 49.45 14.2942 49.1502 13.5786C48.8504 12.863 48.4068 12.2167 47.8467 11.6797Z"
    fill="currentColor"
    opacity="0.35"
  />
  <path
    d="M43.1368 11.6797C39.9928 8.57302 36.8486 5.46573 33.7046 2.35839C33.155 1.79778 32.4959 1.35656 31.7681 1.06201C31.0403 0.767456 30.2595 0.62598 29.4747 0.646479C23.4887 0.691146 17.502 0.729094 11.5147 0.75976C10.7288 0.721784 9.94381 0.849528 9.21075 1.13525C8.47768 1.42097 7.81319 1.8582 7.26031 2.41796C6.70743 2.97773 6.27863 3.64773 6.00201 4.38427C5.72538 5.12082 5.60714 5.90705 5.65484 6.69238C5.73084 19.559 5.80841 32.4282 5.88775 45.2988C5.85414 46.0804 5.98491 46.8601 6.27178 47.5879C6.55865 48.3157 6.99518 48.975 7.55303 49.5234C8.11088 50.0719 8.77774 50.4971 9.51031 50.7715C10.2429 51.0459 11.0248 51.1636 11.8057 51.1167C20.9444 51.0627 30.0831 51.0073 39.2217 50.9507C40.0032 50.9855 40.7832 50.8562 41.5115 50.5708C42.2398 50.2854 42.9001 49.8499 43.4498 49.2935C43.9995 48.737 44.4262 48.0716 44.7027 47.3398C44.9791 46.6081 45.0992 45.8264 45.0547 45.0454C45.0267 40.1967 44.9975 35.3479 44.9669 30.4985C44.9369 25.6125 44.908 20.7265 44.8807 15.8398C44.8906 15.0639 44.741 14.2942 44.441 13.5786C44.141 12.863 43.6971 12.2165 43.1368 11.6797Z"
    fill="currentColor"
    opacity="0.55"
  />
  <path
    d="M38.309 12.3108C35.1844 9.1861 32.0594 6.06017 28.934 2.93284C28.3878 2.36913 27.7312 1.92406 27.0053 1.62522C26.2795 1.32637 25.4999 1.18034 24.7151 1.19602C18.7284 1.20535 12.7414 1.20535 6.75411 1.19602C5.96793 1.15264 5.18148 1.27521 4.44601 1.55637C3.71054 1.83753 3.04257 2.27061 2.4858 2.82737C1.92904 3.38413 1.49597 4.05235 1.21481 4.78782C0.933649 5.52329 0.810835 6.30974 0.854212 7.09592C0.854212 19.9626 0.854212 32.8312 0.854212 45.7019C0.815842 46.4832 0.941926 47.2639 1.22433 47.9934C1.50673 48.7229 1.93917 49.3849 2.49362 49.9367C3.04807 50.4886 3.712 50.9176 4.44283 51.1965C5.17367 51.4754 5.95494 51.598 6.73605 51.5559H34.153C34.9342 51.5955 35.7151 51.4706 36.445 51.1897C37.175 50.9087 37.8378 50.4781 38.3908 49.925C38.9438 49.3719 39.3747 48.7087 39.6555 47.9787C39.9363 47.2487 40.061 46.4679 40.0212 45.6867C40.0212 40.8367 40.0212 35.9876 40.0212 31.1389C40.0212 26.2529 40.0212 21.3664 40.0212 16.4797C40.0365 15.7046 39.8924 14.9346 39.5979 14.2175C39.3034 13.5004 38.8647 12.8514 38.309 12.3108Z"
    fill="currentColor"
  />
  <path
    d="M28.9614 17.7051H11.6834C9.84811 17.7051 8.36035 19.1928 8.36035 21.0281C8.36035 22.8633 9.84811 24.3511 11.6834 24.3511H28.9614C30.7966 24.3511 32.2844 22.8633 32.2844 21.0281C32.2844 19.1928 30.7966 17.7051 28.9614 17.7051Z"
    fill="currentColor"
    opacity="0.72"
  />
  <path
    d="M28.9614 27.2188H11.6834C9.84811 27.2188 8.36035 28.7065 8.36035 30.5417C8.36035 32.377 9.84811 33.8647 11.6834 33.8647H28.9614C30.7966 33.8647 32.2844 32.377 32.2844 30.5417C32.2844 28.7065 30.7966 27.2188 28.9614 27.2188Z"
    fill="currentColor"
    opacity="0.72"
  />
  <path
    d="M28.9614 36.7305H11.6834C9.84811 36.7305 8.36035 38.2182 8.36035 40.0535C8.36035 41.8887 9.84811 43.3765 11.6834 43.3765H28.9614C30.7966 43.3765 32.2844 41.8887 32.2844 40.0535C32.2844 38.2182 30.7966 36.7305 28.9614 36.7305Z"
    fill="currentColor"
    opacity="0.72"
  />
</svg>
