<svg width="41" height="39" viewBox="0 0 41 39" fill="none" xmlns="http://www.w3.org/2000/svg">
  <path
    d="M35.8357 29.4336C35.8357 32.0623 35.8357 34.6912 35.8357 37.3199C35.8357 38.2749 35.4625 38.6465 34.4985 38.6485C31.9045 38.6485 29.3102 38.6485 26.7155 38.6485C25.7385 38.6485 25.3886 38.2948 25.3886 37.3218C25.3886 34.5218 25.3886 31.7214 25.3886 28.9214C25.3886 27.9594 25.0186 27.5875 24.0566 27.5865C21.6666 27.5825 19.277 27.5825 16.8877 27.5865C15.9047 27.5865 15.5566 27.9377 15.5556 28.9097C15.5556 31.7097 15.5556 34.5096 15.5556 37.3096C15.5556 38.2726 15.1877 38.6475 14.2297 38.6485C11.6344 38.6525 9.03952 38.6525 6.44552 38.6485C5.44552 38.6485 5.10763 38.2988 5.10763 37.2818C5.10763 32.0931 5.10763 26.9034 5.10763 21.7134C5.10763 20.5134 4.79973 20.2134 3.58273 20.2134C2.98273 20.2134 2.38752 20.2034 1.78952 20.2134C1.54996 20.2466 1.30632 20.1964 1.09933 20.0713C0.892346 19.9463 0.734627 19.7539 0.652554 19.5264C0.576673 19.2974 0.578104 19.0503 0.656704 18.8223C0.735305 18.5943 0.886775 18.3982 1.08761 18.2647C3.06695 16.4587 5.04354 14.6491 7.01754 12.8365C11.2009 9.01446 15.3855 5.19387 19.5715 1.37454C19.6725 1.23371 19.8055 1.1188 19.9594 1.03909C20.1134 0.959379 20.2839 0.917312 20.4572 0.916045C20.6306 0.914778 20.8019 0.954314 20.957 1.03177C21.1121 1.10922 21.2465 1.22251 21.3496 1.36185C27.4829 6.97185 33.6164 12.5817 39.7497 18.1924C39.9208 18.3336 40.0718 18.4977 40.1987 18.6797C40.2908 18.8346 40.3397 19.0112 40.3403 19.1914C40.3409 19.3717 40.2932 19.5491 40.2021 19.7046C40.111 19.8601 39.98 19.9881 39.8225 20.0757C39.665 20.1633 39.4868 20.2073 39.3066 20.2027C38.5736 20.2287 37.8387 20.2025 37.1067 20.2115C36.2067 20.2185 35.8396 20.5856 35.8396 21.4956C35.8356 24.1416 35.8343 26.7876 35.8357 29.4336Z"
    fill="currentColor"
  />
</svg>
