<svg width="30" height="30" viewBox="0 0 30 30" fill="none" xmlns="http://www.w3.org/2000/svg">
  <path
    d="M6.9755 12.2788L8.81828 9.54874C9.17716 10.6606 9.44311 11.2668 9.94553 12.0349C6.76311 15.0009 5.39117 17.761 4.91087 21.9996C2.18459 21.309 0.366611 19.6886 0.0143568 17.7021C0.000160676 17.622 -0.00281172 17.5387 0.00239657 17.4572C0.255785 13.4929 1.04683 11.4763 4.15857 8.65075L6.9755 12.2788Z"
    fill="currentColor"
  />
  <path
    d="M6.97545 0C8.56444 0 9.9325 1.07751 10.5476 2.62616C9.02542 4.02014 8.62867 5.94742 8.56764 8.54617C8.08111 8.79295 7.54238 8.93044 6.97545 8.93044C4.81104 8.9304 3.05641 6.9311 3.05641 4.46505C3.05649 1.99907 4.81109 3.2004e-05 6.97545 0Z"
    fill="currentColor"
  />
  <path
    d="M25.3463 8.65075C28.6697 11.252 29.7113 13.1609 30 17.5812C29.9025 19.8031 28.0323 21.3529 25.224 22.0043C24.3127 17.5689 23.2657 15.4046 20.3556 12.7326L19.7433 12.2093L20.3556 11.1628L20.9157 9.7269L22.8969 12.2788L25.3463 8.65075Z"
    fill="currentColor"
  />
  <path
    d="M22.8969 0C25.0612 1.40239e-05 26.8158 1.99906 26.8159 4.46505C26.8159 6.93111 25.0613 8.93042 22.8969 8.93044C22.2542 8.93044 21.6476 8.75401 21.1124 8.44159L21.1211 8.37277C21.1631 5.81376 20.7036 4.59364 19.4371 2.61628C19.4075 2.59974 19.3777 2.58381 19.3483 2.56756C19.9744 1.05037 21.328 0 22.8969 0Z"
    fill="currentColor"
  />
  <path
    d="M11.4764 12.907L14.9975 17.4419L18.0593 12.907C22.2137 16.1584 23.5158 18.5446 23.8767 24.0698C23.7236 27.5581 20.0752 29.7242 14.9975 30C10.1618 29.6557 6.81776 27.2719 6.29059 24.1909C6.27686 24.1107 6.27389 24.0272 6.27905 23.9457C6.59366 18.9699 7.57855 16.4462 11.4764 12.907Z"
    fill="currentColor"
  />
  <path
    d="M19.8964 7.67442C19.8964 10.7569 17.7031 13.2558 14.9975 13.2558C12.2919 13.2558 10.0986 10.7569 10.0986 7.67442C10.0986 4.5919 12.2919 2.09302 14.9975 2.09302C17.7031 2.09302 19.8964 4.5919 19.8964 7.67442Z"
    fill="currentColor"
  />
</svg>
