<svg width="30" height="30" viewBox="0 0 30 30" fill="none" xmlns="http://www.w3.org/2000/svg">
  <path
    d="M4 8.5C4 6.567 5.567 5 7.5 5H22.5C24.433 5 26 6.567 26 8.5V21.5C26 23.433 24.433 25 22.5 25H7.5C5.567 25 4 23.433 4 21.5V8.5Z"
    fill="currentColor"
    opacity="0.35"
  />
  <path
    d="M6.5 8.5C6.5 7.94772 6.94772 7.5 7.5 7.5H22.5C23.0523 7.5 23.5 7.94772 23.5 8.5V21.5C23.5 22.0523 23.0523 22.5 22.5 22.5H7.5C6.94772 22.5 6.5 22.0523 6.5 21.5V8.5Z"
    fill="currentColor"
  />
  <path
    d="M10.5 11C11.6046 11 12.5 11.8954 12.5 13C12.5 14.1046 11.6046 15 10.5 15C9.39543 15 8.5 14.1046 8.5 13C8.5 11.8954 9.39543 11 10.5 11Z"
    fill="currentColor"
    opacity="0.72"
  />
  <path
    d="M15 11.5H21.5V13.5H15V11.5ZM15 15.5H19V17.5H15V15.5Z"
    fill="currentColor"
    opacity="0.72"
  />
  <path d="M4 12.5H6.5V17.5H4V12.5ZM23.5 12.5H26V17.5H23.5V12.5Z" fill="currentColor" />
</svg>
