<svg width="30" height="30" viewBox="0 0 30 30" fill="none" xmlns="http://www.w3.org/2000/svg">
  <path
    d="M7 4.5C7 3.67157 7.67157 3 8.5 3H18.5L24 8.5V25.5C24 26.3284 23.3284 27 22.5 27H8.5C7.67157 27 7 26.3284 7 25.5V4.5Z"
    fill="currentColor"
    opacity="0.35"
  />
  <path
    d="M9 5.5H17.5V10H22V25.5C22 25.7761 21.7761 26 21.5 26H8.5C8.22386 26 8 25.7761 8 25.5V5.5H9Z"
    fill="currentColor"
  />
  <path
    d="M11 13.5H20V15.5H11V13.5ZM11 17.5H18V19.5H11V17.5ZM11 21.5H16V23.5H11V21.5Z"
    fill="currentColor"
    opacity="0.72"
  />
  <circle cx="21.5" cy="8.5" r="4.5" fill="currentColor" />
  <path
    d="M14.5 24.5C14.5 21.4624 17.4624 18.5 21 18.5C24.5376 18.5 27.5 21.4624 27.5 24.5V26H14.5V24.5Z"
    fill="currentColor"
  />
</svg>
