<svg width="14" height="14" viewBox="0 0 11.6699 11.6699" fill="none" xmlns="http://www.w3.org/2000/svg" aria-hidden="true">
<path id="Subtract" d="M5.83496 0C9.05753 0 11.6699 2.6124 11.6699 5.83496C11.6699 9.05754 9.05754 11.6699 5.83496 11.6699C2.6124 11.6699 0 9.05753 0 5.83496C2.13891e-05 2.61241 2.61241 2.13898e-05 5.83496 0ZM5.8125 2.16797C5.72106 2.168 5.63016 2.19697 5.55566 2.25C5.48135 2.30296 5.42548 2.37768 5.39551 2.46387L5.02832 3.58691C4.91619 3.92501 4.72761 4.23265 4.47754 4.48633C4.22745 4.74002 3.92243 4.93285 3.58594 5.0498L2.46289 5.41602C2.37625 5.44608 2.3011 5.50233 2.24805 5.57715C2.20869 5.63327 2.1832 5.69787 2.17285 5.76562C2.16253 5.83337 2.16766 5.90248 2.18848 5.96777C2.20931 6.0331 2.24529 6.09232 2.29297 6.1416C2.34058 6.19082 2.39839 6.22896 2.46289 6.25195L3.58594 6.61621C3.92742 6.73074 4.23782 6.92371 4.49219 7.17871C4.74644 7.43371 4.93815 7.74423 5.05176 8.08594L5.41699 9.20801C5.44795 9.29392 5.50535 9.3684 5.58008 9.4209C5.65475 9.47328 5.74374 9.50195 5.83496 9.50195C5.92621 9.50191 6.01518 9.47336 6.08984 9.4209C6.16455 9.3684 6.221 9.29391 6.25195 9.20801L6.61914 8.08594C6.73332 7.7456 6.92492 7.4365 7.17871 7.18262C7.43265 6.92868 7.74253 6.7363 8.08301 6.62207L9.20703 6.25684C9.29381 6.22682 9.36972 6.17059 9.42285 6.0957C9.46219 6.03963 9.48767 5.97493 9.49805 5.90723C9.50838 5.83958 9.50314 5.77029 9.48242 5.70508C9.46159 5.63974 9.42561 5.57956 9.37793 5.53027C9.33028 5.48108 9.27156 5.44385 9.20703 5.4209L9.18457 5.41699L8.06348 5.0498C7.72193 4.93693 7.41095 4.7462 7.15625 4.49219C6.90161 4.23818 6.70947 3.92811 6.5957 3.58691L6.23145 2.46387C6.20127 2.37702 6.14445 2.30205 6.06934 2.24902C5.99421 2.19602 5.90443 2.16731 5.8125 2.16797Z" fill="var(--fill-0, #171720)"/>
</svg>
