<svg width="20" height="10" viewBox="0 0 10.5001 21.0002" fill="none" xmlns="http://www.w3.org/2000/svg" aria-hidden="true">
<g id="Left dot">
<path id="Ellipse 2979" d="M2.52812e-07 0.5C2.65219 0.5 5.19576 1.55358 7.07114 3.42896C8.94652 5.30434 10.0001 7.84791 10.0001 10.5001C10.0001 13.1523 8.94652 15.6959 7.07114 17.5712C5.19576 19.4466 2.65219 20.5002 2.56252e-06 20.5002L2.52812e-07 0.5Z" fill="var(--fill-0, #F4F5F5)"/>
<path id="Ellipse 2980" d="M2.52812e-07 0.5C2.65219 0.5 5.19576 1.55358 7.07114 3.42896C8.94652 5.30434 10.0001 7.84791 10.0001 10.5001C10.0001 13.1523 8.94652 15.6959 7.07114 17.5712C5.19576 19.4466 2.65219 20.5002 2.56252e-06 20.5002" stroke="var(--stroke-0, #EFEFF0)"/>
</g>
</svg>
