<svg viewBox="0 0 19.4823 14" fill="none" xmlns="http://www.w3.org/2000/svg"><path d="M3.44328 0.401367C3.80649 -0.130923 4.59087 -0.134045 4.95793 0.395508L8.28996 5.20605C8.712 5.81536 8.27613 6.64808 7.53508 6.64844H4.69524V13.54C4.69524 13.7938 4.48903 14 4.23528 14C3.98164 13.9999 3.77629 13.7937 3.77629 13.54V6.64844H0.920824C0.182589 6.64844 -0.25462 5.82183 0.161058 5.21191L3.44328 0.401367ZM18.5614 7.35156C19.3028 7.35156 19.7394 8.18451 19.3173 8.79395L15.9853 13.6035C15.6183 14.1333 14.8339 14.131 14.4706 13.5986L11.1884 8.78809C10.7723 8.17818 11.2089 7.35169 11.9472 7.35156H14.8036V0.459961C14.8036 0.20628 15.009 0.000107916 15.2626 0C15.5164 0 15.7226 0.206213 15.7226 0.459961V7.35156H18.5614Z" fill="currentColor"/></svg>
